<svg width="25" height="25" viewBox="0 0 25 25" fill="none" xmlns="http://www.w3.org/2000/svg">
<g id="checkmark-square-01">
<path id="Vector" d="M3 12.5C3 8.02166 3 5.78249 4.39124 4.39124C5.78249 3 8.02166 3 12.5 3C16.9783 3 19.2175 3 20.6088 4.39124C22 5.78249 22 8.02166 22 12.5C22 16.9783 22 19.2175 20.6088 20.6088C19.2175 22 16.9783 22 12.5 22C8.02166 22 5.78249 22 4.39124 20.6088C3 19.2175 3 16.9783 3 12.5Z" stroke="white" stroke-width="1.5"/>
<path id="Vector_2" d="M8.5 14.25C8.5 14.25 10.1 15.1625 10.9 16.5C10.9 16.5 13.3 11.25 16.5 9.5" stroke="white" stroke-width="1.5" stroke-linecap="round" stroke-linejoin="round"/>
</g>
</svg>
